<?xml version="1.0" ?><svg data-name="Layer 1" id="Layer_1" viewBox="0 0 512 512" xmlns="http://www.w3.org/2000/svg"><path d="M376.49,119.57a36.91,36.91,0,0,0-16.18,3.71V112.49c0-19.76-16.39-35.83-36.54-35.83a36.89,36.89,0,0,0-16.66,4c-2.83-17-17.93-30-36.05-30-20.14,0-36.53,16.07-36.53,35.83v5.81a36.7,36.7,0,0,0-15.85-3.59c-20.14,0-36.53,16.08-36.53,35.83V221.2c-1.72-2.48-3.6-5.08-5.67-7.82-18.69-24.8-47.89-29.83-65.3-20.4-10.26,5.55-14.55,15.66-10.92,25.74,4.78,13.27,20.44,49,37,86.8,5.9,13.44,11.88,27.09,17.48,39.94,16.74,38.55,31.64,58.16,37.9,65.43v40.35a10.18,10.18,0,1,0,20.35,0v-44.3a10.31,10.31,0,0,0-3.08-7.3c-.16-.16-16.71-16.73-36.52-62.29-5.59-12.87-11.59-26.55-17.5-40-16.44-37.48-32-72.88-36.66-85.22.39-.7,3.26-2.71,8.93-3.06,4.4-.28,19.65.13,32.05,16.58A272.55,272.55,0,0,1,177,251c2.38,4,4.59,7.64,6.89,11.06,0,.05.07.08.1.13s.28.35.42.53a9.27,9.27,0,0,0,.77.89c.15.15.32.29.48.44a10,10,0,0,0,1,.75l.5.33a11,11,0,0,0,1.33.66l.31.14a9.82,9.82,0,0,0,1.86.5l.07,0c44.32,7.26,47.51,30,47.66,31.34a10.17,10.17,0,0,0,10.13,9.39c.2,0,.4,0,.61,0a10.18,10.18,0,0,0,9.57-10.74c-.09-1.55-2.79-36.3-56.16-48.38V124.46c0-8.53,7.27-15.47,16.18-15.47a15.92,15.92,0,0,1,15.85,13.15V223.08a10.18,10.18,0,0,0,20.35,0V86.41c0-8.53,7.26-15.48,16.18-15.48s16.18,6.95,16.18,15.48v26.08a9.62,9.62,0,0,0,.17,1.71V223.08a10.18,10.18,0,0,0,20.35,0V112.49c0-.29-.06-.55-.08-.83.46-8.14,7.47-14.65,16.09-14.65C332.7,97,340,104,340,112.49V226.88a10.18,10.18,0,1,0,20.35,0V155.4c0-8.53,7.26-15.48,16.18-15.48s16.17,7,16.17,15.48l0,104.88,0,73.15c0,41.89-26.14,53-27.15,53.43a10.18,10.18,0,0,0-6.54,9.51v54.87a10.18,10.18,0,1,0,20.35,0V402.49c11.42-7,33.65-26.21,33.69-69v-178C413,135.64,396.63,119.57,376.49,119.57Z"/></svg>