<?xml version="1.0" ?><svg viewBox="0 0 512 512" xmlns="http://www.w3.org/2000/svg"><g id="Partnership_management"><path d="M404.85,128.61a17.07,17.07,0,0,0-17.08-17.08H124.23a17.08,17.08,0,0,0-17.08,17.08V392.1a17.08,17.08,0,0,0,17.08,17.08l263.54.06a17.08,17.08,0,0,0,17.08-17.08Zm-18,262.63H256V363.86a7.3,7.3,0,0,1,9.49-7,42.7,42.7,0,0,1,5.12,2,27.23,27.23,0,1,0,12.63-51.36c-4.56,0-12.63,3.11-12.63,3.11a42.93,42.93,0,0,1-5.11,2,7.3,7.3,0,0,1-9.5-7V260.38H210.69a7.31,7.31,0,0,0-7,9.5,41.84,41.84,0,0,0,2,5.11s3.1,8.07,3.1,12.63A27.24,27.24,0,1,1,157.45,275a41.63,41.63,0,0,0,2-5.12,7.31,7.31,0,0,0-7-9.49H125.15V129.53H256v27.31a7.31,7.31,0,0,1-9.49,7,42.46,42.46,0,0,1-5.12-2,27.23,27.23,0,1,0-12.63,51.36c4.56,0,12.63-3.1,12.63-3.1a41.84,41.84,0,0,1,5.11-2,7.3,7.3,0,0,1,9.5,7v45.31h45.36a7.3,7.3,0,0,0,6.92-9.49,42.46,42.46,0,0,0-2-5.12s-3.1-8.07-3.1-12.63a27.24,27.24,0,1,1,51.36,12.63,42.46,42.46,0,0,0-2,5.12,7.31,7.31,0,0,0,6.93,9.49h27.36Z"/></g></svg>